Coordinates
version=1
nRows=17
nColumns=38
inDegrees=yes

Units are S.I. units (second, meters, Newtons, ...)
If the header above contains a line with 'inDegrees', this indicates whether rotational values are in degrees (yes) or radians (no).

endheader
time	pelvis_tilt	pelvis_list	pelvis_rotation	pelvis_tx	pelvis_ty	pelvis_tz	hip_flexion_r	hip_adduction_r	hip_rotation_r	knee_angle_r	ankle_angle_r	subtalar_angle_r	mtp_angle_r	hip_flexion_l	hip_adduction_l	hip_rotation_l	knee_angle_l	ankle_angle_l	subtalar_angle_l	mtp_angle_l	lumbar_extension	lumbar_bending	lumbar_rotation	arm_flex_r	arm_add_r	arm_rot_r	elbow_flex_r	pro_sup_r	wrist_flex_r	wrist_dev_r	arm_flex_l	arm_add_l	arm_rot_l	elbow_flex_l	pro_sup_l	wrist_flex_l	wrist_dev_l
      0.90800000	      2.31221532	     -6.93060554	      7.06517709	     -2.16521455	      1.04413076	      0.23788910	     20.66323621	      5.70022255	    -12.21411796	    -17.03778461	     -6.24134479	     10.42811607	      0.00000000	     -7.57186753	     -8.11799068	      3.97362885	    -76.51539781	    -15.65428950	     -7.58342489	      0.00000000	    -12.32208237	      8.79134241	     -5.91297081	    -55.19289554	    -27.01123657	    -10.98790094	     96.17694979	     60.00586988	      0.00000000	      0.00000000	    -24.25769997	    -21.78272900	      3.13057582	    116.81707616	     60.00014031	      0.00000000	      0.00000000
      0.91200000	      2.68900465	     -7.45533232	      7.09219210	     -2.15106700	      1.04054818	      0.23863090	     20.37025891	      6.45435473	    -11.71306619	    -18.50585487	     -4.21359943	     10.84690498	      0.00000000	     -6.83261530	     -8.77815591	      4.03012211	    -78.74852789	    -14.98656442	     -7.38593105	      0.00000000	    -12.76025482	      9.37606922	     -5.47760857	    -54.34731103	    -27.45346702	    -10.82320190	     96.10343917	     60.00586988	      0.00000000	      0.00000000	    -24.46765488	    -21.68407092	      3.16239051	    115.26568339	     60.00014031	      0.00000000	      0.00000000
      0.91600000	      2.86695782	     -8.06194620	      6.77101089	     -2.13687032	      1.03648722	      0.23987639	     20.42191126	      7.35092959	    -11.19440908	    -20.48723582	     -1.68242791	     11.58514789	      0.00000000	     -5.95014283	     -9.53307444	      3.76838131	    -80.96795643	    -14.12842422	     -6.64469390	      0.00000000	    -13.02250830	      9.96114285	     -4.75748855	    -53.58127930	    -27.98435866	    -10.60574498	     96.20636746	     60.00586988	      0.00000000	      0.00000000	    -24.84639904	    -21.62787099	      3.32292418	    113.76776082	     60.00014031	      0.00000000	      0.00000000
      0.92000000	      2.83739439	     -8.45594720	      8.82954372	     -2.12617682	      1.03160507	      0.23687122	     21.01747746	      6.89337789	    -13.66656418	    -22.78821889	      1.72951243	     12.55772974	      0.00000000	     -3.65420133	     -9.76910602	      6.38410987	    -84.06310753	    -13.08470936	     -6.02951039	      0.00000000	    -13.05115888	     10.96150146	     -6.31677202	    -52.55078148	    -28.56502716	    -10.63106825	     96.48455141	     60.00586988	      0.00000000	      0.00000000	    -24.54643035	    -21.64678876	      3.66474174	    112.22435873	     60.00014031	      0.00000000	      0.00000000
      0.92400000	      2.55257293	     -8.53952316	      6.69811642	     -2.11047141	      1.02707384	      0.24040760	     21.37543731	      7.92550249	    -11.59916206	    -25.03478306	      4.90035804	     11.88618584	      0.00000000	     -2.98936783	     -9.93924760	      4.24025915	    -85.76175224	    -12.41605667	     -5.51642389	      0.00000000	    -12.96924628	     10.51409583	     -4.05198597	    -51.83186030	    -29.03286499	    -10.35151840	     96.36954225	     60.00586988	      0.00000000	      0.00000000	    -25.16503565	    -21.54786985	      3.63740563	    110.61497578	     60.00014031	      0.00000000	      0.00000000
      0.92800000	      2.67829981	     -8.83607741	      6.75499243	     -2.09788729	      1.02266948	      0.24029822	     21.48732265	      8.30309642	    -11.78098078	    -26.96623446	      7.47734688	     11.74693459	      0.00000000	     -1.72579640	    -10.19642238	      4.55401979	    -88.11634080	    -11.50040932	     -4.95670235	      0.00000000	    -13.32066849	     10.94970282	     -3.67170339	    -50.90418270	    -29.58475198	    -10.27515716	     96.59162974	     60.00586988	      0.00000000	      0.00000000	    -25.13626990	    -21.55372402	      4.00150996	    108.98760640	     60.00014031	      0.00000000	      0.00000000
      0.93200000	      2.87467750	     -9.09439643	      6.58994630	     -2.08492054	      1.01849087	      0.24065235	     21.42075156	      8.80634547	    -11.71127762	    -28.61825975	      9.78000383	     11.26162556	      0.00000000	     -0.64119505	    -10.43980414	      4.58998668	    -90.28650139	    -10.83125445	     -4.74712856	      0.00000000	    -13.79029310	     11.24232458	     -3.05667001	    -49.85446694	    -30.11372514	    -10.15643181	     96.58313687	     60.00586988	      0.00000000	      0.00000000	    -25.21463687	    -21.42818330	      4.18153872	    107.35831368	     60.00014031	      0.00000000	      0.00000000
      0.93600000	      2.45395283	     -9.40421841	      6.46097773	     -2.07267376	      1.01340794	      0.24081208	     22.22765381	      9.18106529	    -11.80556418	    -30.55181820	     11.76387448	     10.68288394	      0.00000000	      1.28319019	    -10.64657191	      4.88099427	    -92.67092618	     -9.76719305	     -3.69082496	      0.00000000	    -13.59587004	     11.57743412	     -2.60390697	    -48.82941514	    -30.75040790	     -9.93298045	     96.70557060	     60.00586988	      0.00000000	      0.00000000	    -25.22225405	    -21.30785299	      4.28044402	    105.70853427	     60.00014031	      0.00000000	      0.00000000
      0.94000000	      2.45660888	     -9.58050277	      6.20916093	     -2.05972255	      1.00908113	      0.24112582	     22.51504347	      9.53985807	    -11.80462427	    -32.45127273	     13.59426376	     10.11790001	      0.00000000	      2.57025478	    -10.77180478	      4.91433876	    -94.73699079	     -9.05981335	     -3.12552167	      0.00000000	    -13.83526625	     11.76128042	     -1.97418259	    -47.72028832	    -31.39120347	     -9.62552543	     96.69164855	     60.00586988	      0.00000000	      0.00000000	    -25.20364605	    -21.30986402	      4.61305306	    103.94613134	     60.00014031	      0.00000000	      0.00000000
      0.94400000	      2.41319650	     -9.70560631	      6.24784771	     -2.04712176	      1.00460615	      0.24079429	     23.01070697	      9.59434019	    -12.24578340	    -34.67553812	     15.42064659	     10.02731139	      0.00000000	      4.07740556	    -10.75423493	      5.29231275	    -96.85399859	     -8.39583007	     -2.51118403	      0.00000000	    -14.02711922	     11.96827386	     -1.63194878	    -46.58450595	    -31.96493443	     -9.50191175	     96.69745910	     60.00586988	      0.00000000	      0.00000000	    -25.23511660	    -21.19603480	      4.87924358	    102.23805936	     60.00014031	      0.00000000	      0.00000000
      0.94800000	      2.77686970	     -9.94299931	      6.15571891	     -2.03418617	      1.00114380	      0.24061293	     22.92277940	      9.92511713	    -12.34783920	    -36.68366628	     17.07187453	      9.80529327	      0.00000000	      5.03584987	    -10.93216829	      5.44147385	    -98.70868259	     -7.87026298	     -2.01225259	      0.00000000	    -14.68269198	     12.29992662	     -1.04338536	    -45.36727738	    -32.56695217	     -9.30145582	     96.67168434	     60.00586988	      0.00000000	      0.00000000	    -25.14181175	    -21.00093068	      5.11877151	    100.37574506	     60.00014031	      0.00000000	      0.00000000
      0.95200000	      3.22594736	    -10.21307613	      6.06637415	     -2.02167613	      0.99801917	      0.24039710	     22.72485666	     10.30792581	    -12.26916853	    -38.60133167	     18.29049971	      9.65102626	      0.00000000	      5.99039115	    -11.13546529	      5.56227906	   -100.49433444	     -7.66239553	     -1.81590289	      0.00000000	    -15.52879763	     12.65313882	     -0.42310247	    -43.99481447	    -33.06463977	     -9.33937019	     96.63327372	     60.00586988	      0.00000000	      0.00000000	    -25.16122223	    -20.88644744	      5.45087227	     98.90711311	     60.00014031	      0.00000000	      0.00000000
      0.95600000	      3.31573099	    -10.61528239	      5.79452416	     -2.00864696	      0.99509625	      0.24023068	     22.60846918	     10.87157283	    -11.90713780	    -40.02513107	     19.64929394	      9.84798386	      0.00000000	      7.22900685	    -11.44619421	      5.67679023	   -102.13770709	     -6.95810146	     -0.53639899	      0.00000000	    -15.81850773	     13.12062689	      0.33189217	    -42.69543499	    -33.90585445	     -8.69509598	     96.41027378	     60.00586988	      0.00000000	      0.00000000	    -24.85693044	    -20.58260833	      5.85846672	     96.35188626	     60.00014031	      0.00000000	      0.00000000
      0.96000000	      3.54344479	    -10.91785635	      5.58338979	     -1.99583994	      0.99248945	      0.24005958	     22.25179515	     11.38895141	    -11.40854363	    -41.29110473	     20.92412335	      9.91883222	      0.00000000	      8.38667204	    -11.65534739	      5.79189019	   -103.68508360	     -6.69090259	      0.16087516	      0.00000000	    -16.35327112	     13.47208948	      1.06935104	    -41.28689159	    -34.49740185	     -8.42600853	     96.27786263	     60.00586988	      0.00000000	      0.00000000	    -24.71792458	    -20.32244394	      6.22653048	     94.28340787	     60.00014031	      0.00000000	      0.00000000
      0.96400000	      3.75601827	    -11.19981080	      5.35641728	     -1.98290568	      0.99028078	      0.24024928	     21.77616578	     11.94543526	    -10.78658486	    -42.33626387	     22.07727999	     10.07538736	      0.00000000	      9.44912733	    -11.96726545	      5.79441317	   -104.91708956	     -6.77279550	      1.84156956	      0.00000000	    -16.85770953	     13.72827909	      1.82440334	    -39.76221929	    -34.95562208	     -8.13201220	     96.05657170	     60.00586988	      0.00000000	      0.00000000	    -24.54321462	    -20.05001498	      6.31080167	     92.24741391	     60.00014031	      0.00000000	      0.00000000
      0.96800000	      3.89140042	    -11.41657631	      5.03533682	     -1.97012156	      0.98812160	      0.23985409	     21.29682717	     12.38921948	    -10.10242385	    -43.28485304	     23.06947894	     10.31325482	      0.00000000	     10.78901366	    -11.98277022	      5.92676266	   -106.42438200	     -6.00954196	      1.94299885	      0.00000000	    -17.30097006	     13.97559811	      2.59279868	    -38.25864027	    -35.67991237	     -7.70755356	     95.88102657	     60.00586988	      0.00000000	      0.00000000	    -24.42396099	    -19.80545651	      6.72828938	     90.21417396	     60.00014031	      0.00000000	      0.00000000
      0.97200000	      4.02147037	    -11.54708958	      4.80685989	     -1.95708464	      0.98628334	      0.23979188	     20.66953097	     12.77713585	     -9.47430995	    -44.00519910	     24.20077791	     10.47719704	      0.00000000	     12.05938350	    -11.98782370	      6.05206435	   -107.61463383	     -5.89187862	      2.67908480	      0.00000000	    -17.70321014	     14.08575930	      3.27769781	    -36.74290611	    -36.09182505	     -7.41277930	     95.80084332	     60.00586988	      0.00000000	      0.00000000	    -24.35076603	    -19.65573492	      7.00888506	     88.28287404	     60.00014031	      0.00000000	      0.00000000
